<svg width="182" height="50" viewBox="0 0 182 50" fill="none" xmlns="http://www.w3.org/2000/svg">
<path d="M11.9809 32.88C5.62094 32.88 0.460938 28.28 0.460938 22.6C0.460938 16.92 5.62094 12.32 11.9809 12.32C18.3009 12.32 23.4609 16.92 23.4609 22.6C23.4609 28.28 18.3009 32.88 11.9809 32.88ZM11.9809 14.36C9.74094 14.36 7.94094 18.04 7.94094 22.6C7.94094 27.2 9.74094 30.88 11.9809 30.88C14.1809 30.88 15.9809 27.2 15.9809 22.6C15.9809 18.04 14.1809 14.36 11.9809 14.36ZM24.8425 30.52C24.8425 28.96 26.0825 29.12 26.0825 26.76C26.0825 25.04 24.5625 24.6 24.5625 23.08C24.5625 20.72 32.6825 17.44 32.6825 21.28C32.6825 21.4 32.6425 21.52 32.6425 21.6C34.3625 21.32 35.7625 19.52 38.1225 19.52C39.7625 19.52 40.6425 21.24 40.3225 22.88C39.9225 24.92 38.5225 26.08 37.1225 26.08C35.3625 26.08 33.7225 23.64 32.4825 23.64C31.6825 23.64 31.4425 25.12 31.4425 25.92C31.4425 28.6 32.6825 28.8 32.6825 30.52C32.6825 32.28 31.3225 32.88 28.7625 32.88C26.2025 32.88 24.8425 32.28 24.8425 30.52ZM41.4794 23.08C41.4794 20.72 49.5994 17.44 49.5994 21.28C49.5994 22.88 48.3594 23.36 48.3594 25.92C48.3594 28.6 49.5994 28.8 49.5994 30.52C49.5994 32.28 48.2394 32.88 45.6794 32.88C43.1194 32.88 41.7594 32.28 41.7594 30.52C41.7594 28.96 42.9994 29.12 42.9994 26.76C42.9994 25.04 41.4794 24.6 41.4794 23.08ZM45.8794 18.68C43.9994 19.48 42.0394 19.12 41.4794 17.88C40.9594 16.64 42.0394 14.96 43.9194 14.16C45.7994 13.32 47.7594 13.68 48.3194 14.92C48.8394 16.16 47.7594 17.84 45.8794 18.68ZM50.5 37.72C50.5 35.48 51.7 34.44 51.7 31.72V27.84C51.7 25.12 50.5 24.12 50.5 21.88C50.5 20.12 51.86 19.52 54.42 19.52C56.14 19.52 57.3 19.8 57.9 20.52C59.02 19.88 60.38 19.52 61.86 19.52C65.94 19.52 69.3 22.52 69.3 26.2C69.3 29.92 65.94 32.88 61.86 32.88C60.02 32.88 58.38 32.32 57.1 31.36V31.72C57.1 34.44 58.3 35.48 58.3 37.72C58.3 39.44 56.94 40.08 54.42 40.08C51.86 40.08 50.5 39.44 50.5 37.72ZM59.9 21.84C58.34 21.84 57.1 23.8 57.1 26.2C57.1 28.6 58.34 30.56 59.9 30.56C61.46 30.56 62.7 28.6 62.7 26.2C62.7 23.8 61.46 21.84 59.9 21.84ZM70.6238 30.52C70.6238 28.96 71.8638 29.12 71.8638 26.76C71.8638 25.04 70.3438 24.6 70.3438 23.08C70.3438 20.72 78.4638 17.44 78.4638 21.28C78.4638 21.4 78.4238 21.52 78.4238 21.6C80.1438 21.32 81.5438 19.52 83.9038 19.52C85.5438 19.52 86.4238 21.24 86.1038 22.88C85.7038 24.92 84.3038 26.08 82.9038 26.08C81.1438 26.08 79.5038 23.64 78.2638 23.64C77.4638 23.64 77.2238 25.12 77.2238 25.92C77.2238 28.6 78.4638 28.8 78.4638 30.52C78.4638 32.28 77.1038 32.88 74.5438 32.88C71.9838 32.88 70.6238 32.28 70.6238 30.52ZM94.6319 32.88C90.2319 32.88 86.6719 29.92 86.6719 26.2C86.6719 22.52 90.2319 19.52 94.6319 19.52C98.7119 19.52 101.992 22.12 101.992 24.48C101.992 27.52 96.8719 26.84 95.9119 28.84C97.5119 29.44 99.1919 29.28 99.7519 28.28C100.272 27.4 102.552 27.8 101.752 29.2C100.472 31.4 97.7519 32.88 94.6319 32.88ZM96.1519 22.32C96.1519 20.84 92.5919 20.96 92.5919 24.24C92.5919 25.84 93.3119 27.08 94.3119 27.88C94.5119 26 96.1519 23.6 96.1519 22.32ZM104.161 26.2C101.041 23.72 104.401 19.52 110.161 19.52C113.041 19.52 116.801 20.48 117.321 22.28C117.921 24.12 113.961 24.2 112.601 22.96C110.641 21.08 109.161 21.28 109.161 22.24C109.121 23.4 114.081 24.32 116.281 26.2C119.281 28.8 116.041 32.88 110.241 32.88C107.361 32.88 103.641 31.92 103.081 30.12C102.521 28.28 106.481 28.2 107.801 29.48C109.801 31.32 111.281 31.12 111.281 30.16C111.281 29.04 106.481 28.08 104.161 26.2ZM119.552 26.2C116.432 23.72 119.792 19.52 125.552 19.52C128.432 19.52 132.192 20.48 132.712 22.28C133.312 24.12 129.352 24.2 127.992 22.96C126.032 21.08 124.552 21.28 124.552 22.24C124.512 23.4 129.472 24.32 131.672 26.2C134.672 28.8 131.432 32.88 125.632 32.88C122.752 32.88 119.032 31.92 118.472 30.12C117.912 28.28 121.872 28.2 123.192 29.48C125.192 31.32 126.672 31.12 126.672 30.16C126.672 29.04 121.872 28.08 119.552 26.2ZM141.702 32.88C137.302 32.88 133.742 29.92 133.742 26.2C133.742 22.52 137.302 19.52 141.702 19.52C146.102 19.52 149.662 22.52 149.662 26.2C149.662 29.92 146.102 32.88 141.702 32.88ZM141.702 21.52C140.822 21.52 140.102 23.64 140.102 26.2C140.102 28.8 140.822 30.88 141.702 30.88C142.622 30.88 143.342 28.8 143.342 26.2C143.342 23.64 142.622 21.52 141.702 21.52Z" fill="#194025"/>
<path d="M163.271 17.0417C162.79 17.0417 162.329 17.2326 161.989 17.5726C161.649 17.9125 161.458 18.3735 161.458 18.8542C161.458 19.3349 161.649 19.7959 161.989 20.1358C162.329 20.4757 162.79 20.6667 163.271 20.6667C163.752 20.6667 164.213 20.4757 164.552 20.1358C164.892 19.7959 165.083 19.3349 165.083 18.8542C165.083 18.3735 164.892 17.9125 164.552 17.5726C164.213 17.2326 163.752 17.0417 163.271 17.0417ZM165.083 13.4167C166.686 13.4167 168.222 14.0532 169.355 15.1863C170.488 16.3193 171.125 17.856 171.125 19.4584C171.125 21.5125 170.098 23.325 168.539 24.4125C170.448 24.5938 172.599 25.0288 174.75 26.1042C178.375 27.9167 179.583 25.5 179.583 25.5C179.583 25.5 178.375 36.375 171.125 36.375H163.875C163.875 36.375 157.833 36.375 157.833 30.3334C157.833 26.7084 161.458 25.5 160.25 23.0834C155.417 23.0834 155.417 18.8542 155.417 18.8542C156.625 19.4584 158.123 19.4584 159.042 19.0354C159.154 17.5096 159.84 16.0827 160.96 15.0407C162.081 13.9987 163.553 13.4186 165.083 13.4167Z" fill="#194025"/>
</svg>
