<svg width="45" height="45" viewBox="0 0 45 45" fill="none" xmlns="http://www.w3.org/2000/svg">
<path d="M14.0625 37.5C15.6158 37.5 16.875 36.2408 16.875 34.6875C16.875 33.1342 15.6158 31.875 14.0625 31.875C12.5092 31.875 11.25 33.1342 11.25 34.6875C11.25 36.2408 12.5092 37.5 14.0625 37.5Z" fill="#194025"/>
<path d="M30.9375 37.5C32.4908 37.5 33.75 36.2408 33.75 34.6875C33.75 33.1342 32.4908 31.875 30.9375 31.875C29.3842 31.875 28.125 33.1342 28.125 34.6875C28.125 36.2408 29.3842 37.5 30.9375 37.5Z" fill="#194025"/>
<path d="M5.625 9.375H9.375L10.5 15M10.5 15L13.125 28.125H31.875L35.625 15H10.5Z" stroke="#194025" stroke-width="3" stroke-linecap="round" stroke-linejoin="round"/>
</svg>
