<svg width="47" height="47" viewBox="0 0 47 47" fill="none" xmlns="http://www.w3.org/2000/svg">
<path d="M14.6875 39.1667C16.3098 39.1667 17.625 37.8515 17.625 36.2292C17.625 34.6068 16.3098 33.2917 14.6875 33.2917C13.0652 33.2917 11.75 34.6068 11.75 36.2292C11.75 37.8515 13.0652 39.1667 14.6875 39.1667Z" fill="#F5F8F1"/>
<path d="M32.3125 39.1667C33.9348 39.1667 35.25 37.8515 35.25 36.2292C35.25 34.6068 33.9348 33.2917 32.3125 33.2917C30.6902 33.2917 29.375 34.6068 29.375 36.2292C29.375 37.8515 30.6902 39.1667 32.3125 39.1667Z" fill="#F5F8F1"/>
<path d="M5.875 9.79166H9.79167L10.9667 15.6667M10.9667 15.6667L13.7083 29.375H33.2917L37.2083 15.6667H10.9667Z" stroke="#F5F8F1" stroke-width="3" stroke-linecap="round" stroke-linejoin="round"/>
</svg>
