<svg width="288" height="50" viewBox="0 0 288 50" fill="none" xmlns="http://www.w3.org/2000/svg">
<path d="M4.41625 34.612C4.72825 34.612 4.94425 34.672 5.06425 34.792C5.18425 34.904 5.24425 35.112 5.24425 35.416V40.312C5.24425 40.616 5.18425 40.828 5.06425 40.948C4.94425 41.06 4.72825 41.116 4.41625 41.116H1.77625C1.46425 41.116 1.24825 41.06 1.12825 40.948C1.00825 40.828 0.94825 40.616 0.94825 40.312V35.416C0.94825 35.112 1.00825 34.904 1.12825 34.792C1.24825 34.672 1.46425 34.612 1.77625 34.612H4.41625ZM2.00425 35.368C1.85225 35.368 1.77625 35.44 1.77625 35.584V40.144C1.77625 40.288 1.85225 40.36 2.00425 40.36H4.17625C4.32825 40.36 4.40425 40.288 4.40425 40.144V35.584C4.40425 35.44 4.32825 35.368 4.17625 35.368H2.00425ZM7.33225 33.832C7.43625 33.832 7.52825 33.86 7.60825 33.916C7.69625 33.972 7.74025 34.06 7.74025 34.18V43.132C7.74025 43.252 7.69625 43.34 7.60825 43.396C7.52825 43.452 7.43625 43.48 7.33225 43.48C7.22025 43.48 7.12025 43.452 7.03225 43.396C6.95225 43.34 6.91225 43.252 6.91225 43.132V38.236H4.84825V37.48H6.91225V34.18C6.91225 34.06 6.95225 33.972 7.03225 33.916C7.12025 33.86 7.22025 33.832 7.33225 33.832ZM9.44425 33.712C9.55625 33.712 9.65225 33.74 9.73225 33.796C9.82025 33.852 9.86425 33.94 9.86425 34.06V43.636C9.86425 43.756 9.82025 43.844 9.73225 43.9C9.65225 43.956 9.55625 43.984 9.44425 43.984C9.34025 43.984 9.24425 43.956 9.15625 43.9C9.07625 43.844 9.03625 43.756 9.03625 43.636V34.06C9.03625 33.94 9.07625 33.852 9.15625 33.796C9.24425 33.74 9.34025 33.712 9.44425 33.712ZM13.4181 34.084C13.5301 34.084 13.6301 34.112 13.7181 34.168C13.8061 34.224 13.8501 34.316 13.8501 34.444V37.468C13.8501 37.62 13.9261 37.696 14.0781 37.696H19.9941C20.1061 37.696 20.1861 37.732 20.2341 37.804C20.2821 37.876 20.3061 37.964 20.3061 38.068C20.3061 38.18 20.2821 38.272 20.2341 38.344C20.1861 38.416 20.1061 38.452 19.9941 38.452H13.8021C13.4901 38.452 13.2741 38.396 13.1541 38.284C13.0341 38.164 12.9741 37.952 12.9741 37.648V34.444C12.9741 34.316 13.0181 34.224 13.1061 34.168C13.1941 34.112 13.2981 34.084 13.4181 34.084ZM21.2421 40.048C21.3461 40.048 21.4221 40.084 21.4701 40.156C21.5181 40.228 21.5421 40.316 21.5421 40.42C21.5421 40.524 21.5181 40.612 21.4701 40.684C21.4221 40.756 21.3461 40.792 21.2421 40.792H18.7101V44.404C18.7101 44.532 18.6661 44.624 18.5781 44.68C18.4981 44.736 18.4021 44.764 18.2901 44.764C18.1781 44.764 18.0781 44.736 17.9901 44.68C17.9101 44.624 17.8701 44.532 17.8701 44.404V40.792H15.2061V44.404C15.2061 44.532 15.1621 44.624 15.0741 44.68C14.9941 44.736 14.8981 44.764 14.7861 44.764C14.6741 44.764 14.5741 44.736 14.4861 44.68C14.4061 44.624 14.3661 44.532 14.3661 44.404V40.792H11.8341C11.7301 40.792 11.6541 40.756 11.6061 40.684C11.5581 40.612 11.5341 40.524 11.5341 40.42C11.5341 40.316 11.5581 40.228 11.6061 40.156C11.6541 40.084 11.7301 40.048 11.8341 40.048H21.2421ZM25.864 34.168C25.976 34.168 26.076 34.196 26.164 34.252C26.26 34.308 26.308 34.4 26.308 34.528V35.932C26.308 36.34 26.372 36.7 26.5 37.012C26.628 37.316 26.844 37.6 27.148 37.864C27.452 38.12 27.728 38.348 27.976 38.548C28.224 38.748 28.464 38.932 28.696 39.1C28.8 39.18 28.852 39.276 28.852 39.388C28.86 39.492 28.832 39.584 28.768 39.664C28.704 39.752 28.62 39.808 28.516 39.832C28.42 39.856 28.32 39.828 28.216 39.748C28.008 39.596 27.78 39.424 27.532 39.232C27.284 39.032 27.02 38.812 26.74 38.572C26.436 38.316 26.224 38.104 26.104 37.936C25.984 37.76 25.908 37.608 25.876 37.48H25.864C25.832 37.616 25.752 37.776 25.624 37.96C25.504 38.136 25.292 38.352 24.988 38.608C24.708 38.848 24.424 39.08 24.136 39.304C23.856 39.528 23.58 39.736 23.308 39.928C23.204 40.008 23.1 40.036 22.996 40.012C22.9 39.98 22.82 39.92 22.756 39.832C22.692 39.752 22.66 39.66 22.66 39.556C22.66 39.444 22.712 39.348 22.816 39.268C23.408 38.844 23.992 38.38 24.568 37.876C24.872 37.612 25.088 37.328 25.216 37.024C25.352 36.72 25.42 36.364 25.42 35.956V34.528C25.42 34.4 25.464 34.308 25.552 34.252C25.64 34.196 25.744 34.168 25.864 34.168ZM31 33.712C31.112 33.712 31.212 33.74 31.3 33.796C31.388 33.852 31.432 33.944 31.432 34.072V41.392C31.432 41.52 31.388 41.612 31.3 41.668C31.212 41.724 31.112 41.752 31 41.752C30.888 41.752 30.788 41.724 30.7 41.668C30.612 41.612 30.568 41.52 30.568 41.392V37H28.42C28.316 37 28.24 36.964 28.192 36.892C28.144 36.82 28.12 36.728 28.12 36.616C28.12 36.512 28.144 36.424 28.192 36.352C28.24 36.272 28.316 36.232 28.42 36.232H30.568V34.072C30.568 33.944 30.612 33.852 30.7 33.796C30.788 33.74 30.888 33.712 31 33.712ZM25.024 40.816C25.136 40.816 25.236 40.844 25.324 40.9C25.42 40.956 25.468 41.048 25.468 41.176V43.528C25.468 43.672 25.544 43.744 25.696 43.744H31.432C31.544 43.744 31.624 43.78 31.672 43.852C31.72 43.932 31.744 44.024 31.744 44.128C31.744 44.232 31.72 44.32 31.672 44.392C31.624 44.472 31.544 44.512 31.432 44.512H25.408C25.096 44.512 24.88 44.452 24.76 44.332C24.64 44.22 24.58 44.012 24.58 43.708V41.176C24.58 41.048 24.624 40.956 24.712 40.9C24.808 40.844 24.912 40.816 25.024 40.816ZM37.8059 34.348C37.9099 34.348 37.9859 34.384 38.0339 34.456C38.0819 34.528 38.1059 34.616 38.1059 34.72C38.1059 34.824 38.0819 34.912 38.0339 34.984C37.9859 35.056 37.9099 35.092 37.8059 35.092H34.8419C34.6899 35.092 34.6139 35.168 34.6139 35.32V36.616H37.6259C37.7299 36.616 37.8059 36.656 37.8539 36.736C37.9019 36.808 37.9259 36.892 37.9259 36.988C37.9259 37.084 37.9019 37.168 37.8539 37.24C37.8059 37.312 37.7299 37.348 37.6259 37.348H34.6139V38.692C34.6139 38.844 34.6899 38.92 34.8419 38.92C35.1299 38.92 35.4299 38.916 35.7419 38.908C36.0539 38.892 36.3619 38.876 36.6659 38.86C36.9699 38.844 37.2579 38.824 37.5299 38.8C37.8099 38.768 38.0659 38.732 38.2979 38.692C38.3859 38.676 38.4619 38.7 38.5259 38.764C38.5899 38.828 38.6299 38.912 38.6459 39.016C38.6619 39.128 38.6459 39.224 38.5979 39.304C38.5579 39.384 38.4899 39.432 38.3939 39.448C38.0339 39.512 37.5179 39.564 36.8459 39.604C36.1739 39.644 35.4219 39.664 34.5899 39.664C34.2779 39.664 34.0619 39.608 33.9419 39.496C33.8219 39.376 33.7619 39.164 33.7619 38.86V35.152C33.7619 34.848 33.8219 34.64 33.9419 34.528C34.0619 34.408 34.2779 34.348 34.5899 34.348H37.8059ZM42.2099 33.712C42.3219 33.712 42.4179 33.74 42.4979 33.796C42.5859 33.852 42.6299 33.94 42.6299 34.06V40.036C42.6299 40.156 42.5859 40.244 42.4979 40.3C42.4179 40.348 42.3219 40.372 42.2099 40.372C42.1059 40.372 42.0099 40.348 41.9219 40.3C41.8419 40.244 41.8019 40.156 41.8019 40.036V37.336H40.2059V39.976C40.2059 40.096 40.1619 40.184 40.0739 40.24C39.9939 40.288 39.8979 40.312 39.7859 40.312C39.6819 40.312 39.5859 40.288 39.4979 40.24C39.4179 40.184 39.3779 40.096 39.3779 39.976V34.12C39.3779 34 39.4179 33.912 39.4979 33.856C39.5859 33.8 39.6819 33.772 39.7859 33.772C39.8979 33.772 39.9939 33.8 40.0739 33.856C40.1619 33.912 40.2059 34 40.2059 34.12V36.58H41.8019V34.06C41.8019 33.94 41.8419 33.852 41.9219 33.796C42.0099 33.74 42.1059 33.712 42.2099 33.712ZM41.8019 40.984C42.1139 40.984 42.3299 41.044 42.4499 41.164C42.5699 41.276 42.6299 41.484 42.6299 41.788V44.416C42.6299 44.544 42.5819 44.636 42.4859 44.692C42.3979 44.748 42.2979 44.776 42.1859 44.776C42.0739 44.776 41.9739 44.748 41.8859 44.692C41.7979 44.636 41.7539 44.544 41.7539 44.416V41.956C41.7539 41.812 41.6779 41.74 41.5259 41.74H35.6099C35.5059 41.74 35.4299 41.704 35.3819 41.632C35.3339 41.56 35.3099 41.472 35.3099 41.368C35.3099 41.256 35.3339 41.164 35.3819 41.092C35.4299 41.02 35.5059 40.984 35.6099 40.984H41.8019Z" fill="#070A26"/>
<path d="M137.998 34.156C138.35 34.156 138.59 34.22 138.718 34.348C138.854 34.476 138.922 34.712 138.922 35.056V35.812C138.922 36.228 138.874 36.576 138.778 36.856C138.69 37.128 138.498 37.388 138.202 37.636C137.914 37.884 137.49 38.148 136.93 38.428C136.378 38.7 135.638 39.044 134.71 39.46C134.574 39.524 134.438 39.524 134.302 39.46C134.174 39.396 134.078 39.296 134.014 39.16C133.958 39.048 133.938 38.92 133.954 38.776C133.978 38.624 134.07 38.512 134.23 38.44C134.79 38.2 135.262 37.992 135.646 37.816C136.038 37.632 136.362 37.472 136.618 37.336C136.882 37.192 137.086 37.064 137.23 36.952C137.374 36.84 137.482 36.728 137.554 36.616C137.634 36.496 137.682 36.372 137.698 36.244C137.714 36.108 137.722 35.952 137.722 35.776V35.428C137.722 35.34 137.702 35.28 137.662 35.248C137.63 35.208 137.566 35.188 137.47 35.188H134.482C134.338 35.188 134.23 35.136 134.158 35.032C134.094 34.928 134.062 34.808 134.062 34.672C134.062 34.536 134.094 34.416 134.158 34.312C134.23 34.208 134.338 34.156 134.482 34.156H137.998ZM142.03 33.664C142.182 33.664 142.318 33.704 142.438 33.784C142.558 33.864 142.618 33.992 142.618 34.168V38.824C142.618 39 142.558 39.128 142.438 39.208C142.318 39.288 142.182 39.328 142.03 39.328C141.878 39.328 141.738 39.288 141.61 39.208C141.49 39.128 141.43 39 141.43 38.824V38.164H139.75C139.606 38.164 139.502 38.116 139.438 38.02C139.382 37.916 139.354 37.796 139.354 37.66C139.354 37.524 139.382 37.408 139.438 37.312C139.502 37.208 139.606 37.156 139.75 37.156H141.43V36.196H139.846C139.702 36.196 139.598 36.148 139.534 36.052C139.478 35.956 139.45 35.84 139.45 35.704C139.45 35.568 139.478 35.452 139.534 35.356C139.598 35.252 139.702 35.2 139.846 35.2H141.43V34.168C141.43 33.992 141.49 33.864 141.61 33.784C141.738 33.704 141.878 33.664 142.03 33.664ZM141.694 39.844C142.046 39.844 142.286 39.908 142.414 40.036C142.55 40.164 142.618 40.4 142.618 40.744V41.848C142.618 42.192 142.55 42.428 142.414 42.556C142.286 42.684 142.046 42.748 141.694 42.748H137.002C136.914 42.748 136.85 42.768 136.81 42.808C136.77 42.84 136.75 42.904 136.75 43V43.516C136.75 43.684 136.834 43.768 137.002 43.768H142.486C142.622 43.768 142.722 43.816 142.786 43.912C142.85 44.008 142.882 44.12 142.882 44.248C142.882 44.376 142.85 44.488 142.786 44.584C142.722 44.68 142.622 44.728 142.486 44.728H136.51C136.158 44.728 135.914 44.664 135.778 44.536C135.65 44.408 135.586 44.172 135.586 43.828V42.724C135.586 42.38 135.65 42.144 135.778 42.016C135.914 41.888 136.158 41.824 136.51 41.824H141.19C141.286 41.824 141.35 41.808 141.382 41.776C141.422 41.736 141.442 41.668 141.442 41.572V41.056C141.442 40.968 141.422 40.908 141.382 40.876C141.35 40.836 141.286 40.816 141.19 40.816H135.958C135.822 40.816 135.722 40.768 135.658 40.672C135.594 40.576 135.562 40.46 135.562 40.324C135.562 40.196 135.594 40.084 135.658 39.988C135.722 39.892 135.822 39.844 135.958 39.844H141.694ZM149.316 34.576C149.46 34.576 149.564 34.628 149.628 34.732C149.7 34.836 149.736 34.956 149.736 35.092C149.736 35.228 149.7 35.348 149.628 35.452C149.564 35.556 149.46 35.608 149.316 35.608H147.78V36.808C147.78 37.056 147.792 37.28 147.816 37.48C147.84 37.672 147.88 37.856 147.936 38.032C147.992 38.208 148.064 38.376 148.152 38.536C148.248 38.688 148.364 38.844 148.5 39.004C148.708 39.26 148.912 39.496 149.112 39.712C149.32 39.92 149.5 40.104 149.652 40.264C149.756 40.376 149.804 40.508 149.796 40.66C149.788 40.804 149.732 40.928 149.628 41.032C149.524 41.128 149.4 41.184 149.256 41.2C149.12 41.208 148.996 41.156 148.884 41.044C148.78 40.94 148.64 40.792 148.464 40.6C148.288 40.408 148.104 40.208 147.912 40C147.648 39.696 147.468 39.46 147.372 39.292C147.284 39.116 147.228 38.964 147.204 38.836H147.192C147.176 38.972 147.116 39.132 147.012 39.316C146.916 39.492 146.736 39.732 146.472 40.036C146.088 40.468 145.704 40.876 145.32 41.26C145.208 41.372 145.076 41.42 144.924 41.404C144.78 41.388 144.66 41.332 144.564 41.236C144.46 41.124 144.4 40.996 144.384 40.852C144.368 40.708 144.416 40.576 144.528 40.456C144.76 40.224 144.988 39.988 145.212 39.748C145.444 39.508 145.668 39.26 145.884 39.004C146.02 38.844 146.132 38.688 146.22 38.536C146.316 38.376 146.392 38.208 146.448 38.032C146.504 37.856 146.544 37.672 146.568 37.48C146.592 37.28 146.604 37.056 146.604 36.808V35.608H144.972C144.82 35.608 144.708 35.556 144.636 35.452C144.572 35.348 144.54 35.228 144.54 35.092C144.54 34.956 144.572 34.836 144.636 34.732C144.708 34.628 144.82 34.576 144.972 34.576H149.316ZM151.104 33.784C151.24 33.784 151.364 33.824 151.476 33.904C151.596 33.976 151.656 34.092 151.656 34.252V43.06C151.656 43.22 151.596 43.336 151.476 43.408C151.364 43.488 151.24 43.528 151.104 43.528C150.96 43.528 150.828 43.488 150.708 43.408C150.596 43.336 150.54 43.22 150.54 43.06V38.188H149.376C149.224 38.188 149.112 38.14 149.04 38.044C148.976 37.94 148.944 37.816 148.944 37.672C148.944 37.528 148.976 37.408 149.04 37.312C149.112 37.208 149.224 37.156 149.376 37.156H150.54V34.252C150.54 34.092 150.596 33.976 150.708 33.904C150.828 33.824 150.96 33.784 151.104 33.784ZM153.252 33.664C153.396 33.664 153.524 33.704 153.636 33.784C153.756 33.856 153.816 33.972 153.816 34.132V43.564C153.816 43.724 153.756 43.84 153.636 43.912C153.524 43.992 153.396 44.032 153.252 44.032C153.116 44.032 152.988 43.992 152.868 43.912C152.756 43.84 152.7 43.724 152.7 43.564V34.132C152.7 33.972 152.756 33.856 152.868 33.784C152.988 33.704 153.116 33.664 153.252 33.664Z" fill="#070A26"/>
<path d="M253.06 34.276C253.164 34.276 253.24 34.316 253.288 34.396C253.336 34.468 253.36 34.556 253.36 34.66C253.36 34.764 253.336 34.856 253.288 34.936C253.24 35.008 253.164 35.044 253.06 35.044H250.06V35.248C250.06 35.48 250.076 35.68 250.108 35.848C250.14 36.016 250.196 36.168 250.276 36.304C250.364 36.44 250.48 36.568 250.624 36.688C250.776 36.8 250.964 36.916 251.188 37.036C251.604 37.252 252 37.452 252.376 37.636C252.752 37.82 253.132 38 253.516 38.176C253.604 38.224 253.66 38.3 253.684 38.404C253.708 38.508 253.696 38.608 253.648 38.704C253.592 38.8 253.516 38.868 253.42 38.908C253.332 38.948 253.244 38.948 253.156 38.908C252.756 38.724 252.38 38.548 252.028 38.38C251.676 38.212 251.308 38.024 250.924 37.816C250.692 37.696 250.496 37.584 250.336 37.48C250.176 37.368 250.044 37.268 249.94 37.18C249.844 37.092 249.772 37.008 249.724 36.928C249.676 36.848 249.644 36.772 249.628 36.7H249.616C249.584 36.852 249.476 37.016 249.292 37.192C249.116 37.368 248.792 37.58 248.32 37.828C247.936 38.036 247.564 38.224 247.204 38.392C246.852 38.56 246.48 38.736 246.088 38.92C246 38.96 245.908 38.96 245.812 38.92C245.716 38.88 245.64 38.812 245.584 38.716C245.536 38.612 245.52 38.508 245.536 38.404C245.56 38.3 245.62 38.224 245.716 38.176C246.1 38 246.48 37.82 246.856 37.636C247.232 37.452 247.628 37.252 248.044 37.036C248.268 36.916 248.452 36.8 248.596 36.688C248.748 36.568 248.864 36.44 248.944 36.304C249.032 36.168 249.092 36.016 249.124 35.848C249.156 35.68 249.172 35.48 249.172 35.248V35.044H246.172C246.068 35.044 245.992 35.008 245.944 34.936C245.896 34.856 245.872 34.764 245.872 34.66C245.872 34.556 245.896 34.468 245.944 34.396C245.992 34.316 246.068 34.276 246.172 34.276H253.06ZM254.308 40.096C254.42 40.096 254.5 40.132 254.548 40.204C254.596 40.276 254.62 40.368 254.62 40.48C254.62 40.584 254.596 40.672 254.548 40.744C254.5 40.816 254.42 40.852 254.308 40.852H250.06V44.464C250.06 44.592 250.012 44.684 249.916 44.74C249.828 44.796 249.728 44.824 249.616 44.824C249.504 44.824 249.404 44.796 249.316 44.74C249.228 44.684 249.184 44.592 249.184 44.464V40.852H244.924C244.812 40.852 244.732 40.816 244.684 40.744C244.636 40.672 244.612 40.584 244.612 40.48C244.612 40.368 244.636 40.276 244.684 40.204C244.732 40.132 244.812 40.096 244.924 40.096H254.308ZM263.262 34.156C263.574 34.156 263.79 34.216 263.91 34.336C264.03 34.448 264.09 34.656 264.09 34.96V37.276C264.09 37.58 264.03 37.792 263.91 37.912C263.79 38.024 263.574 38.08 263.262 38.08H257.814C257.502 38.08 257.286 38.024 257.166 37.912C257.046 37.792 256.986 37.58 256.986 37.276V34.96C256.986 34.656 257.046 34.448 257.166 34.336C257.286 34.216 257.502 34.156 257.814 34.156H263.262ZM258.078 34.9C257.99 34.9 257.93 34.916 257.898 34.948C257.866 34.972 257.85 35.028 257.85 35.116V37.12C257.85 37.208 257.866 37.268 257.898 37.3C257.93 37.324 257.99 37.336 258.078 37.336H262.998C263.086 37.336 263.146 37.324 263.178 37.3C263.21 37.268 263.226 37.208 263.226 37.12V35.116C263.226 35.028 263.21 34.972 263.178 34.948C263.146 34.916 263.086 34.9 262.998 34.9H258.078ZM265.242 39.364C265.346 39.364 265.422 39.4 265.47 39.472C265.518 39.544 265.542 39.632 265.542 39.736C265.542 39.84 265.518 39.928 265.47 40C265.422 40.072 265.346 40.108 265.242 40.108H261.09V42.04C261.09 42.16 261.046 42.248 260.958 42.304C260.878 42.352 260.778 42.376 260.658 42.376C260.546 42.376 260.446 42.352 260.358 42.304C260.27 42.248 260.226 42.16 260.226 42.04V40.108H255.834C255.73 40.108 255.654 40.072 255.606 40C255.558 39.928 255.534 39.84 255.534 39.736C255.534 39.632 255.558 39.544 255.606 39.472C255.654 39.4 255.73 39.364 255.834 39.364H265.242ZM257.406 41.272C257.518 41.272 257.618 41.3 257.706 41.356C257.794 41.412 257.838 41.504 257.838 41.632V43.588C257.838 43.74 257.914 43.816 258.066 43.816H264.018C264.122 43.816 264.198 43.852 264.246 43.924C264.294 43.996 264.318 44.084 264.318 44.188C264.318 44.292 264.294 44.38 264.246 44.452C264.198 44.524 264.122 44.56 264.018 44.56H257.79C257.478 44.56 257.262 44.5 257.142 44.38C257.022 44.268 256.962 44.06 256.962 43.756V41.632C256.962 41.504 257.006 41.412 257.094 41.356C257.182 41.3 257.286 41.272 257.406 41.272ZM269.876 34.096C270.332 34.096 270.728 34.148 271.064 34.252C271.408 34.356 271.692 34.504 271.916 34.696C272.14 34.88 272.308 35.1 272.42 35.356C272.532 35.612 272.588 35.888 272.588 36.184C272.588 36.488 272.532 36.768 272.42 37.024C272.308 37.28 272.14 37.504 271.916 37.696C271.692 37.88 271.408 38.024 271.064 38.128C270.728 38.232 270.332 38.284 269.876 38.284C269.42 38.284 269.02 38.232 268.676 38.128C268.34 38.024 268.06 37.88 267.836 37.696C267.612 37.504 267.444 37.28 267.332 37.024C267.22 36.768 267.164 36.488 267.164 36.184C267.164 35.888 267.22 35.612 267.332 35.356C267.444 35.1 267.612 34.88 267.836 34.696C268.06 34.504 268.34 34.356 268.676 34.252C269.02 34.148 269.42 34.096 269.876 34.096ZM269.876 34.828C269.228 34.828 268.752 34.96 268.448 35.224C268.152 35.48 268.004 35.8 268.004 36.184C268.004 36.568 268.152 36.892 268.448 37.156C268.752 37.42 269.228 37.552 269.876 37.552C270.524 37.552 270.996 37.42 271.292 37.156C271.596 36.892 271.748 36.568 271.748 36.184C271.748 35.8 271.596 35.48 271.292 35.224C270.996 34.96 270.524 34.828 269.876 34.828ZM274.616 33.712C274.728 33.712 274.828 33.74 274.916 33.796C275.004 33.852 275.048 33.944 275.048 34.072V37.204H276.416C276.528 37.204 276.608 37.244 276.656 37.324C276.704 37.396 276.728 37.484 276.728 37.588C276.728 37.7 276.704 37.796 276.656 37.876C276.608 37.948 276.528 37.984 276.416 37.984H275.048V41.644C275.048 41.764 275.004 41.852 274.916 41.908C274.828 41.964 274.728 41.992 274.616 41.992C274.504 41.992 274.404 41.964 274.316 41.908C274.228 41.852 274.184 41.764 274.184 41.644V34.072C274.184 33.944 274.228 33.852 274.316 33.796C274.404 33.74 274.504 33.712 274.616 33.712ZM273.08 39.46C273.168 39.444 273.24 39.468 273.296 39.532C273.36 39.596 273.396 39.68 273.404 39.784C273.412 39.888 273.392 39.98 273.344 40.06C273.304 40.132 273.236 40.176 273.14 40.192C272.076 40.28 271.024 40.344 269.984 40.384C268.944 40.416 267.868 40.432 266.756 40.432C266.644 40.432 266.564 40.396 266.516 40.324C266.468 40.244 266.444 40.152 266.444 40.048C266.444 39.952 266.468 39.868 266.516 39.796C266.564 39.716 266.644 39.676 266.756 39.676C267.204 39.676 267.648 39.676 268.088 39.676C268.536 39.676 268.992 39.672 269.456 39.664V37.72H270.32V39.628C270.768 39.612 271.22 39.592 271.676 39.568C272.132 39.536 272.6 39.5 273.08 39.46ZM268.556 41.272C268.668 41.272 268.768 41.3 268.856 41.356C268.952 41.412 269 41.504 269 41.632V43.564C269 43.716 269.076 43.792 269.228 43.792H275.06C275.164 43.792 275.24 43.828 275.288 43.9C275.336 43.972 275.36 44.06 275.36 44.164C275.36 44.268 275.336 44.356 275.288 44.428C275.24 44.5 275.164 44.536 275.06 44.536H268.94C268.628 44.536 268.412 44.476 268.292 44.356C268.172 44.244 268.112 44.036 268.112 43.732V41.632C268.112 41.504 268.156 41.412 268.244 41.356C268.34 41.3 268.444 41.272 268.556 41.272ZM285.082 34.36C285.394 34.36 285.61 34.42 285.73 34.54C285.85 34.652 285.91 34.86 285.91 35.164V36.7C285.91 37.004 285.85 37.216 285.73 37.336C285.61 37.448 285.394 37.504 285.082 37.504H279.934C279.782 37.504 279.706 37.58 279.706 37.732V38.968C279.706 39.112 279.782 39.184 279.934 39.184H285.898C286.002 39.184 286.078 39.22 286.126 39.292C286.174 39.364 286.198 39.452 286.198 39.556C286.198 39.66 286.174 39.752 286.126 39.832C286.078 39.904 286.002 39.94 285.898 39.94H279.67C279.358 39.94 279.142 39.884 279.022 39.772C278.902 39.652 278.842 39.44 278.842 39.136V37.588C278.842 37.284 278.902 37.076 279.022 36.964C279.142 36.844 279.358 36.784 279.67 36.784H284.83C284.982 36.784 285.058 36.708 285.058 36.556V35.332C285.058 35.18 284.982 35.104 284.83 35.104H279.118C279.014 35.104 278.938 35.068 278.89 34.996C278.842 34.924 278.818 34.836 278.818 34.732C278.818 34.628 278.842 34.54 278.89 34.468C278.938 34.396 279.014 34.36 279.118 34.36H285.082ZM281.218 42.124H283.594V39.544H284.422V42.124H287.086C287.19 42.124 287.266 42.16 287.314 42.232C287.362 42.304 287.386 42.392 287.386 42.496C287.386 42.6 287.362 42.688 287.314 42.76C287.266 42.832 287.19 42.868 287.086 42.868H277.678C277.574 42.868 277.498 42.832 277.45 42.76C277.402 42.688 277.378 42.6 277.378 42.496C277.378 42.392 277.402 42.304 277.45 42.232C277.498 42.16 277.574 42.124 277.678 42.124H280.39V39.544H281.218V42.124Z" fill="#070A26"/>
<line x1="15" y1="16.5" x2="272" y2="16.5" stroke="#B0AAB4"/>
<ellipse cx="22.9412" cy="16.5" rx="7.94118" ry="7.5" fill="#B0AAB4"/>
<circle cx="266.5" cy="16.5" r="7.5" fill="#B0AAB4"/>
<path d="M148.729 6.04166C149.21 6.04166 149.671 6.23262 150.011 6.57253C150.351 6.91244 150.542 7.37345 150.542 7.85416C150.542 8.33486 150.351 8.79588 150.011 9.13579C149.671 9.4757 149.21 9.66666 148.729 9.66666C148.248 9.66666 147.787 9.4757 147.448 9.13579C147.108 8.79588 146.917 8.33486 146.917 7.85416C146.917 7.37345 147.108 6.91244 147.448 6.57253C147.787 6.23262 148.248 6.04166 148.729 6.04166ZM146.917 2.41666C145.314 2.41666 143.778 3.05319 142.645 4.18622C141.512 5.31925 140.875 6.85597 140.875 8.45832C140.875 10.5125 141.902 12.325 143.461 13.4125C141.552 13.5937 139.401 14.0287 137.25 15.1042C133.625 16.9167 132.417 14.5 132.417 14.5C132.417 14.5 133.625 25.375 140.875 25.375H148.125C148.125 25.375 154.167 25.375 154.167 19.3333C154.167 15.7083 150.542 14.5 151.75 12.0833C156.583 12.0833 156.583 7.85416 156.583 7.85416C155.375 8.45832 153.877 8.45832 152.958 8.03541C152.846 6.50952 152.16 5.08263 151.04 4.04065C149.92 2.99867 148.447 2.41859 146.917 2.41666Z" fill="#B0AAB4"/>
</svg>
