<svg width="61" height="17" viewBox="0 0 61 17" fill="none" xmlns="http://www.w3.org/2000/svg">
<path d="M3.06369 3.256C2.80302 3.256 2.61035 3.16533 2.48569 2.984C2.36102 2.80267 2.29869 2.58733 2.29869 2.338C2.29869 2.08867 2.36102 1.87333 2.48569 1.692C2.61035 1.51067 2.80302 1.42 3.06369 1.42H12.5157C12.7764 1.42 12.969 1.51067 13.0937 1.692C13.2184 1.87333 13.2807 2.08867 13.2807 2.338C13.2807 2.58733 13.2184 2.80267 13.0937 2.984C12.969 3.16533 12.7764 3.256 12.5157 3.256H8.89469V3.375C8.89469 3.783 8.99669 4.123 9.20069 4.395C9.40469 4.65567 9.77302 4.922 10.3057 5.194C10.8497 5.466 11.3484 5.70967 11.8017 5.925C12.2664 6.129 12.7537 6.34433 13.2637 6.571C13.4904 6.673 13.6264 6.84867 13.6717 7.098C13.7284 7.336 13.7 7.574 13.5867 7.812C13.4734 8.03867 13.3034 8.20867 13.0767 8.322C12.85 8.43533 12.6177 8.441 12.3797 8.339C11.8017 8.07833 11.2804 7.846 10.8157 7.642C10.3624 7.42667 9.87502 7.18867 9.35369 6.928C8.82102 6.66733 8.44135 6.435 8.21469 6.231C7.99935 6.027 7.86335 5.82867 7.80669 5.636H7.78969C7.73302 5.86267 7.59135 6.078 7.36469 6.282C7.13802 6.486 6.75835 6.71833 6.22569 6.979C5.70435 7.23967 5.21135 7.47767 4.74669 7.693C4.29335 7.897 3.77769 8.12933 3.19969 8.39C2.96169 8.492 2.72935 8.48633 2.50269 8.373C2.27602 8.25967 2.10602 8.084 1.99269 7.846C1.86802 7.59667 1.82835 7.34733 1.87369 7.098C1.93035 6.84867 2.07769 6.673 2.31569 6.571C2.82569 6.34433 3.30735 6.129 3.76069 5.925C4.22535 5.70967 4.72969 5.466 5.27369 5.194C5.80635 4.922 6.17469 4.65567 6.37869 4.395C6.58269 4.123 6.68469 3.783 6.68469 3.375V3.256H3.06369ZM1.36369 11.382C1.10302 11.382 0.910354 11.2913 0.785688 11.11C0.661021 10.9287 0.598688 10.7133 0.598688 10.464C0.598688 10.2147 0.661021 9.99933 0.785688 9.818C0.910354 9.63667 1.10302 9.546 1.36369 9.546H14.2157C14.4764 9.546 14.669 9.63667 14.7937 9.818C14.9184 9.99933 14.9807 10.2147 14.9807 10.464C14.9807 10.7133 14.9184 10.9287 14.7937 11.11C14.669 11.2913 14.4764 11.382 14.2157 11.382H8.87769V15.819C8.87769 16.1363 8.76435 16.3687 8.53769 16.516C8.32235 16.6633 8.07302 16.737 7.78969 16.737C7.50635 16.737 7.25135 16.6633 7.02469 16.516C6.80935 16.3687 6.70169 16.1363 6.70169 15.819V11.382H1.36369ZM19.3863 7.217C18.8423 7.217 18.4627 7.115 18.2473 6.911C18.0433 6.707 17.9413 6.33867 17.9413 5.806V2.695C17.9413 2.16233 18.0433 1.794 18.2473 1.59C18.4627 1.386 18.8423 1.284 19.3863 1.284H27.1383C27.6823 1.284 28.0563 1.386 28.2603 1.59C28.4757 1.794 28.5833 2.16233 28.5833 2.695V5.806C28.5833 6.33867 28.4757 6.707 28.2603 6.911C28.0563 7.115 27.6823 7.217 27.1383 7.217H19.3863ZM26.0333 5.415C26.294 5.415 26.4243 5.28467 26.4243 5.024V3.477C26.4243 3.21633 26.294 3.086 26.0333 3.086H20.4913C20.2307 3.086 20.1003 3.21633 20.1003 3.477V5.024C20.1003 5.28467 20.2307 5.415 20.4913 5.415H26.0333ZM16.8363 10.311C16.5757 10.311 16.383 10.2203 16.2583 10.039C16.1337 9.85767 16.0713 9.648 16.0713 9.41C16.0713 9.16067 16.1337 8.94533 16.2583 8.764C16.383 8.58267 16.5757 8.492 16.8363 8.492H29.6883C29.949 8.492 30.1417 8.58267 30.2663 8.764C30.391 8.94533 30.4533 9.16067 30.4533 9.41C30.4533 9.648 30.391 9.85767 30.2663 10.039C30.1417 10.2203 29.949 10.311 29.6883 10.311H24.5713V12.317C24.5713 12.6117 24.4637 12.827 24.2483 12.963C24.0443 13.0877 23.7893 13.15 23.4833 13.15C23.1887 13.15 22.9337 13.0877 22.7183 12.963C22.5143 12.827 22.4123 12.6117 22.4123 12.317V10.311H16.8363ZM28.1243 14.561C28.385 14.561 28.5777 14.6517 28.7023 14.833C28.827 15.0143 28.8893 15.2297 28.8893 15.479C28.8893 15.7283 28.827 15.9437 28.7023 16.125C28.5777 16.3063 28.385 16.397 28.1243 16.397H19.3523C18.8083 16.397 18.4287 16.295 18.2133 16.091C18.0093 15.887 17.9073 15.5187 17.9073 14.986V12.351C17.9073 12.0337 18.015 11.8013 18.2303 11.654C18.457 11.5067 18.7177 11.433 19.0123 11.433C19.2957 11.433 19.545 11.5067 19.7603 11.654C19.987 11.8013 20.1003 12.0337 20.1003 12.351V14.17C20.1003 14.4307 20.2307 14.561 20.4913 14.561H28.1243ZM33.397 11.484C32.853 11.484 32.4733 11.382 32.258 11.178C32.054 10.974 31.952 10.6057 31.952 10.073V2.712C31.952 2.39467 32.0597 2.16233 32.275 2.015C32.5017 1.86767 32.7567 1.794 33.04 1.794C33.3347 1.794 33.5897 1.86767 33.805 2.015C34.0317 2.16233 34.145 2.39467 34.145 2.712V9.24C34.145 9.50067 34.2753 9.631 34.536 9.631C34.774 9.631 35.0403 9.62533 35.335 9.614C35.6297 9.60267 35.93 9.59133 36.236 9.58C36.542 9.55733 36.848 9.53467 37.154 9.512C37.46 9.478 37.749 9.444 38.021 9.41C38.2817 9.376 38.4857 9.43833 38.633 9.597C38.7803 9.74433 38.8653 9.94833 38.888 10.209C38.9107 10.4697 38.8767 10.6963 38.786 10.889C38.6953 11.0817 38.5253 11.2007 38.276 11.246C37.9133 11.3027 37.324 11.3593 36.508 11.416C35.692 11.4613 34.655 11.484 33.397 11.484ZM41.591 5.806H43.053V1.539C43.053 1.24433 43.155 1.029 43.359 0.893C43.563 0.756999 43.7953 0.688999 44.056 0.688999C44.3167 0.688999 44.549 0.756999 44.753 0.893C44.957 1.029 45.059 1.24433 45.059 1.539V14.697C45.059 14.9917 44.957 15.207 44.753 15.343C44.549 15.479 44.3167 15.547 44.056 15.547C43.7953 15.547 43.563 15.479 43.359 15.343C43.155 15.207 43.053 14.9917 43.053 14.697V7.642H41.591V13.983C41.591 14.2777 41.489 14.493 41.285 14.629C41.081 14.765 40.8487 14.833 40.588 14.833C40.3387 14.833 40.112 14.765 39.908 14.629C39.704 14.493 39.602 14.2777 39.602 13.983V1.709C39.602 1.41433 39.704 1.199 39.908 1.063C40.112 0.926999 40.3387 0.858999 40.588 0.858999C40.8487 0.858999 41.081 0.926999 41.285 1.063C41.489 1.199 41.591 1.41433 41.591 1.709V5.806ZM47.4247 5.194C47.4247 4.63867 47.5097 4.123 47.6797 3.647C47.8497 3.171 48.099 2.763 48.4277 2.423C48.7563 2.07167 49.17 1.79967 49.6687 1.607C50.1673 1.41433 50.7453 1.318 51.4027 1.318C52.06 1.318 52.638 1.41433 53.1367 1.607C53.6353 1.79967 54.049 2.07167 54.3777 2.423C54.7063 2.763 54.9557 3.171 55.1257 3.647C55.2957 4.123 55.3807 4.63867 55.3807 5.194C55.3807 5.76067 55.2957 6.282 55.1257 6.758C54.9557 7.22267 54.7063 7.63067 54.3777 7.982C54.049 8.322 53.6353 8.58833 53.1367 8.781C52.638 8.97367 52.06 9.07 51.4027 9.07C50.7453 9.07 50.1673 8.97367 49.6687 8.781C49.17 8.58833 48.7563 8.322 48.4277 7.982C48.099 7.63067 47.8497 7.22267 47.6797 6.758C47.5097 6.282 47.4247 5.76067 47.4247 5.194ZM53.3067 5.194C53.3067 4.91067 53.2727 4.64433 53.2047 4.395C53.1367 4.13433 53.0233 3.91333 52.8647 3.732C52.7173 3.53933 52.5247 3.392 52.2867 3.29C52.0487 3.17667 51.754 3.12 51.4027 3.12C51.0513 3.12 50.7567 3.17667 50.5187 3.29C50.2807 3.392 50.0823 3.53933 49.9237 3.732C49.7763 3.91333 49.6687 4.13433 49.6007 4.395C49.5327 4.64433 49.4987 4.91067 49.4987 5.194C49.4987 5.48867 49.5327 5.76067 49.6007 6.01C49.6687 6.25933 49.7763 6.48033 49.9237 6.673C50.0823 6.85433 50.2807 7.00167 50.5187 7.115C50.7567 7.217 51.0513 7.268 51.4027 7.268C51.754 7.268 52.0487 7.217 52.2867 7.115C52.5247 7.00167 52.7173 6.85433 52.8647 6.673C53.0233 6.48033 53.1367 6.25933 53.2047 6.01C53.2727 5.76067 53.3067 5.48867 53.3067 5.194ZM60.1407 9.07C60.1407 9.38733 60.0273 9.61967 59.8007 9.767C59.5853 9.91433 59.3417 9.988 59.0697 9.988C58.7977 9.988 58.5483 9.91433 58.3217 9.767C58.1063 9.61967 57.9987 9.38733 57.9987 9.07V7.693H56.5027C56.242 7.693 56.0493 7.60233 55.9247 7.421C55.8113 7.23967 55.7547 7.01867 55.7547 6.758C55.7547 6.50867 55.8113 6.29333 55.9247 6.112C56.0493 5.93067 56.242 5.84 56.5027 5.84H57.9987V4.633H56.5027C56.242 4.633 56.0493 4.54233 55.9247 4.361C55.8113 4.17967 55.7547 3.95867 55.7547 3.698C55.7547 3.44867 55.8113 3.23333 55.9247 3.052C56.0493 2.87067 56.242 2.78 56.5027 2.78H57.9987V1.607C57.9987 1.28967 58.1063 1.05733 58.3217 0.909999C58.5483 0.762666 58.7977 0.688999 59.0697 0.688999C59.3417 0.688999 59.5853 0.762666 59.8007 0.909999C60.0273 1.05733 60.1407 1.28967 60.1407 1.607V9.07ZM57.9647 12.844C57.9647 12.5833 57.8343 12.453 57.5737 12.453H50.3317C50.071 12.453 49.8783 12.3623 49.7537 12.181C49.629 11.9997 49.5667 11.7843 49.5667 11.535C49.5667 11.2857 49.629 11.0703 49.7537 10.889C49.8783 10.7077 50.071 10.617 50.3317 10.617H58.6957C59.2397 10.617 59.6137 10.719 59.8177 10.923C60.033 11.127 60.1407 11.4953 60.1407 12.028V15.751C60.1407 16.0683 60.0273 16.3007 59.8007 16.448C59.5853 16.5953 59.336 16.669 59.0527 16.669C58.7693 16.669 58.5143 16.5953 58.2877 16.448C58.0723 16.3007 57.9647 16.0683 57.9647 15.751V12.844Z" fill="#070A26"/>
</svg>
