<svg width="18" height="19" viewBox="0 0 18 19" fill="none" xmlns="http://www.w3.org/2000/svg">
<path d="M11.475 16.625L11.475 2.375C11.475 1.74511 11.2261 1.14102 10.783 0.695621C10.34 0.250222 9.73907 2.75333e-08 9.1125 0C8.48593 -2.75333e-08 7.88501 0.250222 7.44196 0.695621C6.99891 1.14102 6.75 1.74511 6.75 2.375L6.75 16.625C6.75 17.2549 6.9989 17.859 7.44196 18.3044C7.88501 18.7498 8.48592 19 9.1125 19C9.73907 19 10.34 18.7498 10.783 18.3044C11.2261 17.859 11.475 17.2549 11.475 16.625Z" fill="#194025"/>
<path d="M2.25 11.9881L15.75 11.9881C16.3467 11.9881 16.919 11.7379 17.341 11.2925C17.7629 10.8471 18 10.243 18 9.6131C18 8.98321 17.7629 8.37912 17.341 7.93372C16.919 7.48832 16.3467 7.23809 15.75 7.23809L2.25 7.23809C1.65326 7.23809 1.08097 7.48832 0.65901 7.93372C0.237053 8.37911 5.47768e-08 8.9832 0 9.61309C-5.47768e-08 10.243 0.237053 10.8471 0.65901 11.2925C1.08097 11.7379 1.65326 11.9881 2.25 11.9881Z" fill="#194025"/>
</svg>
