<svg width="288" height="50" viewBox="0 0 288 50" fill="none" xmlns="http://www.w3.org/2000/svg">
<path d="M4.41625 34.612C4.72825 34.612 4.94425 34.672 5.06425 34.792C5.18425 34.904 5.24425 35.112 5.24425 35.416V40.312C5.24425 40.616 5.18425 40.828 5.06425 40.948C4.94425 41.06 4.72825 41.116 4.41625 41.116H1.77625C1.46425 41.116 1.24825 41.06 1.12825 40.948C1.00825 40.828 0.94825 40.616 0.94825 40.312V35.416C0.94825 35.112 1.00825 34.904 1.12825 34.792C1.24825 34.672 1.46425 34.612 1.77625 34.612H4.41625ZM2.00425 35.368C1.85225 35.368 1.77625 35.44 1.77625 35.584V40.144C1.77625 40.288 1.85225 40.36 2.00425 40.36H4.17625C4.32825 40.36 4.40425 40.288 4.40425 40.144V35.584C4.40425 35.44 4.32825 35.368 4.17625 35.368H2.00425ZM7.33225 33.832C7.43625 33.832 7.52825 33.86 7.60825 33.916C7.69625 33.972 7.74025 34.06 7.74025 34.18V43.132C7.74025 43.252 7.69625 43.34 7.60825 43.396C7.52825 43.452 7.43625 43.48 7.33225 43.48C7.22025 43.48 7.12025 43.452 7.03225 43.396C6.95225 43.34 6.91225 43.252 6.91225 43.132V38.236H4.84825V37.48H6.91225V34.18C6.91225 34.06 6.95225 33.972 7.03225 33.916C7.12025 33.86 7.22025 33.832 7.33225 33.832ZM9.44425 33.712C9.55625 33.712 9.65225 33.74 9.73225 33.796C9.82025 33.852 9.86425 33.94 9.86425 34.06V43.636C9.86425 43.756 9.82025 43.844 9.73225 43.9C9.65225 43.956 9.55625 43.984 9.44425 43.984C9.34025 43.984 9.24425 43.956 9.15625 43.9C9.07625 43.844 9.03625 43.756 9.03625 43.636V34.06C9.03625 33.94 9.07625 33.852 9.15625 33.796C9.24425 33.74 9.34025 33.712 9.44425 33.712ZM13.4181 34.084C13.5301 34.084 13.6301 34.112 13.7181 34.168C13.8061 34.224 13.8501 34.316 13.8501 34.444V37.468C13.8501 37.62 13.9261 37.696 14.0781 37.696H19.9941C20.1061 37.696 20.1861 37.732 20.2341 37.804C20.2821 37.876 20.3061 37.964 20.3061 38.068C20.3061 38.18 20.2821 38.272 20.2341 38.344C20.1861 38.416 20.1061 38.452 19.9941 38.452H13.8021C13.4901 38.452 13.2741 38.396 13.1541 38.284C13.0341 38.164 12.9741 37.952 12.9741 37.648V34.444C12.9741 34.316 13.0181 34.224 13.1061 34.168C13.1941 34.112 13.2981 34.084 13.4181 34.084ZM21.2421 40.048C21.3461 40.048 21.4221 40.084 21.4701 40.156C21.5181 40.228 21.5421 40.316 21.5421 40.42C21.5421 40.524 21.5181 40.612 21.4701 40.684C21.4221 40.756 21.3461 40.792 21.2421 40.792H18.7101V44.404C18.7101 44.532 18.6661 44.624 18.5781 44.68C18.4981 44.736 18.4021 44.764 18.2901 44.764C18.1781 44.764 18.0781 44.736 17.9901 44.68C17.9101 44.624 17.8701 44.532 17.8701 44.404V40.792H15.2061V44.404C15.2061 44.532 15.1621 44.624 15.0741 44.68C14.9941 44.736 14.8981 44.764 14.7861 44.764C14.6741 44.764 14.5741 44.736 14.4861 44.68C14.4061 44.624 14.3661 44.532 14.3661 44.404V40.792H11.8341C11.7301 40.792 11.6541 40.756 11.6061 40.684C11.5581 40.612 11.5341 40.524 11.5341 40.42C11.5341 40.316 11.5581 40.228 11.6061 40.156C11.6541 40.084 11.7301 40.048 11.8341 40.048H21.2421ZM25.864 34.168C25.976 34.168 26.076 34.196 26.164 34.252C26.26 34.308 26.308 34.4 26.308 34.528V35.932C26.308 36.34 26.372 36.7 26.5 37.012C26.628 37.316 26.844 37.6 27.148 37.864C27.452 38.12 27.728 38.348 27.976 38.548C28.224 38.748 28.464 38.932 28.696 39.1C28.8 39.18 28.852 39.276 28.852 39.388C28.86 39.492 28.832 39.584 28.768 39.664C28.704 39.752 28.62 39.808 28.516 39.832C28.42 39.856 28.32 39.828 28.216 39.748C28.008 39.596 27.78 39.424 27.532 39.232C27.284 39.032 27.02 38.812 26.74 38.572C26.436 38.316 26.224 38.104 26.104 37.936C25.984 37.76 25.908 37.608 25.876 37.48H25.864C25.832 37.616 25.752 37.776 25.624 37.96C25.504 38.136 25.292 38.352 24.988 38.608C24.708 38.848 24.424 39.08 24.136 39.304C23.856 39.528 23.58 39.736 23.308 39.928C23.204 40.008 23.1 40.036 22.996 40.012C22.9 39.98 22.82 39.92 22.756 39.832C22.692 39.752 22.66 39.66 22.66 39.556C22.66 39.444 22.712 39.348 22.816 39.268C23.408 38.844 23.992 38.38 24.568 37.876C24.872 37.612 25.088 37.328 25.216 37.024C25.352 36.72 25.42 36.364 25.42 35.956V34.528C25.42 34.4 25.464 34.308 25.552 34.252C25.64 34.196 25.744 34.168 25.864 34.168ZM31 33.712C31.112 33.712 31.212 33.74 31.3 33.796C31.388 33.852 31.432 33.944 31.432 34.072V41.392C31.432 41.52 31.388 41.612 31.3 41.668C31.212 41.724 31.112 41.752 31 41.752C30.888 41.752 30.788 41.724 30.7 41.668C30.612 41.612 30.568 41.52 30.568 41.392V37H28.42C28.316 37 28.24 36.964 28.192 36.892C28.144 36.82 28.12 36.728 28.12 36.616C28.12 36.512 28.144 36.424 28.192 36.352C28.24 36.272 28.316 36.232 28.42 36.232H30.568V34.072C30.568 33.944 30.612 33.852 30.7 33.796C30.788 33.74 30.888 33.712 31 33.712ZM25.024 40.816C25.136 40.816 25.236 40.844 25.324 40.9C25.42 40.956 25.468 41.048 25.468 41.176V43.528C25.468 43.672 25.544 43.744 25.696 43.744H31.432C31.544 43.744 31.624 43.78 31.672 43.852C31.72 43.932 31.744 44.024 31.744 44.128C31.744 44.232 31.72 44.32 31.672 44.392C31.624 44.472 31.544 44.512 31.432 44.512H25.408C25.096 44.512 24.88 44.452 24.76 44.332C24.64 44.22 24.58 44.012 24.58 43.708V41.176C24.58 41.048 24.624 40.956 24.712 40.9C24.808 40.844 24.912 40.816 25.024 40.816ZM37.8059 34.348C37.9099 34.348 37.9859 34.384 38.0339 34.456C38.0819 34.528 38.1059 34.616 38.1059 34.72C38.1059 34.824 38.0819 34.912 38.0339 34.984C37.9859 35.056 37.9099 35.092 37.8059 35.092H34.8419C34.6899 35.092 34.6139 35.168 34.6139 35.32V36.616H37.6259C37.7299 36.616 37.8059 36.656 37.8539 36.736C37.9019 36.808 37.9259 36.892 37.9259 36.988C37.9259 37.084 37.9019 37.168 37.8539 37.24C37.8059 37.312 37.7299 37.348 37.6259 37.348H34.6139V38.692C34.6139 38.844 34.6899 38.92 34.8419 38.92C35.1299 38.92 35.4299 38.916 35.7419 38.908C36.0539 38.892 36.3619 38.876 36.6659 38.86C36.9699 38.844 37.2579 38.824 37.5299 38.8C37.8099 38.768 38.0659 38.732 38.2979 38.692C38.3859 38.676 38.4619 38.7 38.5259 38.764C38.5899 38.828 38.6299 38.912 38.6459 39.016C38.6619 39.128 38.6459 39.224 38.5979 39.304C38.5579 39.384 38.4899 39.432 38.3939 39.448C38.0339 39.512 37.5179 39.564 36.8459 39.604C36.1739 39.644 35.4219 39.664 34.5899 39.664C34.2779 39.664 34.0619 39.608 33.9419 39.496C33.8219 39.376 33.7619 39.164 33.7619 38.86V35.152C33.7619 34.848 33.8219 34.64 33.9419 34.528C34.0619 34.408 34.2779 34.348 34.5899 34.348H37.8059ZM42.2099 33.712C42.3219 33.712 42.4179 33.74 42.4979 33.796C42.5859 33.852 42.6299 33.94 42.6299 34.06V40.036C42.6299 40.156 42.5859 40.244 42.4979 40.3C42.4179 40.348 42.3219 40.372 42.2099 40.372C42.1059 40.372 42.0099 40.348 41.9219 40.3C41.8419 40.244 41.8019 40.156 41.8019 40.036V37.336H40.2059V39.976C40.2059 40.096 40.1619 40.184 40.0739 40.24C39.9939 40.288 39.8979 40.312 39.7859 40.312C39.6819 40.312 39.5859 40.288 39.4979 40.24C39.4179 40.184 39.3779 40.096 39.3779 39.976V34.12C39.3779 34 39.4179 33.912 39.4979 33.856C39.5859 33.8 39.6819 33.772 39.7859 33.772C39.8979 33.772 39.9939 33.8 40.0739 33.856C40.1619 33.912 40.2059 34 40.2059 34.12V36.58H41.8019V34.06C41.8019 33.94 41.8419 33.852 41.9219 33.796C42.0099 33.74 42.1059 33.712 42.2099 33.712ZM41.8019 40.984C42.1139 40.984 42.3299 41.044 42.4499 41.164C42.5699 41.276 42.6299 41.484 42.6299 41.788V44.416C42.6299 44.544 42.5819 44.636 42.4859 44.692C42.3979 44.748 42.2979 44.776 42.1859 44.776C42.0739 44.776 41.9739 44.748 41.8859 44.692C41.7979 44.636 41.7539 44.544 41.7539 44.416V41.956C41.7539 41.812 41.6779 41.74 41.5259 41.74H35.6099C35.5059 41.74 35.4299 41.704 35.3819 41.632C35.3339 41.56 35.3099 41.472 35.3099 41.368C35.3099 41.256 35.3339 41.164 35.3819 41.092C35.4299 41.02 35.5059 40.984 35.6099 40.984H41.8019Z" fill="#E3B334"/>
<path d="M138.01 34.228C138.322 34.228 138.538 34.288 138.658 34.408C138.778 34.52 138.838 34.728 138.838 35.032V35.8C138.838 36.072 138.818 36.312 138.778 36.52C138.746 36.728 138.674 36.92 138.562 37.096C138.458 37.264 138.31 37.428 138.118 37.588C137.926 37.74 137.67 37.904 137.35 38.08C137.038 38.256 136.654 38.452 136.198 38.668C135.75 38.876 135.218 39.116 134.602 39.388C134.514 39.436 134.422 39.444 134.326 39.412C134.23 39.372 134.154 39.3 134.098 39.196C134.05 39.108 134.034 39.008 134.05 38.896C134.066 38.784 134.13 38.704 134.242 38.656C135.106 38.28 135.786 37.972 136.282 37.732C136.778 37.492 137.15 37.276 137.398 37.084C137.654 36.892 137.814 36.696 137.878 36.496C137.942 36.296 137.974 36.048 137.974 35.752V35.2C137.974 35.056 137.898 34.984 137.746 34.984H134.47C134.358 34.984 134.278 34.948 134.23 34.876C134.182 34.804 134.158 34.716 134.158 34.612C134.158 34.5 134.182 34.408 134.23 34.336C134.278 34.264 134.358 34.228 134.47 34.228H138.01ZM142.078 33.712C142.19 33.712 142.29 33.74 142.378 33.796C142.466 33.852 142.51 33.944 142.51 34.072V38.968C142.51 39.096 142.466 39.188 142.378 39.244C142.29 39.3 142.19 39.328 142.078 39.328C141.966 39.328 141.866 39.3 141.778 39.244C141.69 39.188 141.646 39.096 141.646 38.968V37.996H139.642C139.546 37.996 139.474 37.96 139.426 37.888C139.378 37.816 139.354 37.728 139.354 37.624C139.354 37.528 139.378 37.444 139.426 37.372C139.474 37.3 139.546 37.264 139.642 37.264H141.646V36.076H139.738C139.642 36.076 139.57 36.04 139.522 35.968C139.474 35.896 139.45 35.808 139.45 35.704C139.45 35.608 139.474 35.524 139.522 35.452C139.57 35.38 139.642 35.344 139.738 35.344H141.646V34.072C141.646 33.944 141.69 33.852 141.778 33.796C141.866 33.74 141.966 33.712 142.078 33.712ZM141.682 39.928C141.994 39.928 142.21 39.988 142.33 40.108C142.45 40.22 142.51 40.428 142.51 40.732V41.836C142.51 42.14 142.45 42.352 142.33 42.472C142.21 42.584 141.994 42.64 141.682 42.64H136.762C136.682 42.64 136.622 42.656 136.582 42.688C136.55 42.712 136.534 42.768 136.534 42.856V43.708C136.534 43.86 136.61 43.936 136.762 43.936H142.51C142.606 43.936 142.678 43.972 142.726 44.044C142.774 44.116 142.798 44.2 142.798 44.296C142.798 44.392 142.774 44.476 142.726 44.548C142.678 44.62 142.606 44.656 142.51 44.656H136.51C136.198 44.656 135.982 44.596 135.862 44.476C135.742 44.364 135.682 44.156 135.682 43.852V42.736C135.682 42.432 135.742 42.224 135.862 42.112C135.982 41.992 136.198 41.932 136.51 41.932H141.43C141.518 41.932 141.578 41.92 141.61 41.896C141.642 41.864 141.658 41.804 141.658 41.716V40.864C141.658 40.72 141.582 40.648 141.43 40.648H135.946C135.85 40.648 135.778 40.612 135.73 40.54C135.682 40.468 135.658 40.384 135.658 40.288C135.658 40.192 135.682 40.108 135.73 40.036C135.778 39.964 135.85 39.928 135.946 39.928H141.682ZM149.424 34.648C149.536 34.648 149.616 34.684 149.664 34.756C149.712 34.828 149.736 34.92 149.736 35.032C149.736 35.136 149.712 35.228 149.664 35.308C149.616 35.38 149.536 35.416 149.424 35.416H147.648V36.832C147.648 37.088 147.66 37.32 147.684 37.528C147.708 37.728 147.748 37.916 147.804 38.092C147.868 38.26 147.948 38.424 148.044 38.584C148.148 38.744 148.272 38.908 148.416 39.076C148.648 39.356 148.872 39.616 149.088 39.856C149.312 40.088 149.512 40.296 149.688 40.48C149.76 40.56 149.792 40.652 149.784 40.756C149.784 40.86 149.74 40.952 149.652 41.032C149.58 41.104 149.492 41.148 149.388 41.164C149.292 41.172 149.2 41.132 149.112 41.044C148.992 40.916 148.828 40.744 148.62 40.528C148.42 40.312 148.216 40.08 148.008 39.832C147.72 39.496 147.52 39.236 147.408 39.052C147.304 38.868 147.244 38.708 147.228 38.572H147.216C147.192 38.708 147.124 38.876 147.012 39.076C146.908 39.268 146.712 39.528 146.424 39.856C146.216 40.104 146 40.344 145.776 40.576C145.56 40.808 145.348 41.028 145.14 41.236C145.052 41.324 144.952 41.36 144.84 41.344C144.736 41.328 144.652 41.288 144.588 41.224C144.508 41.144 144.46 41.052 144.444 40.948C144.436 40.844 144.476 40.748 144.564 40.66C144.804 40.412 145.048 40.156 145.296 39.892C145.544 39.628 145.784 39.356 146.016 39.076C146.16 38.908 146.28 38.744 146.376 38.584C146.472 38.424 146.548 38.26 146.604 38.092C146.668 37.916 146.712 37.728 146.736 37.528C146.768 37.32 146.784 37.088 146.784 36.832V35.416H144.912C144.808 35.416 144.732 35.38 144.684 35.308C144.636 35.228 144.612 35.136 144.612 35.032C144.612 34.92 144.636 34.828 144.684 34.756C144.732 34.684 144.808 34.648 144.912 34.648H149.424ZM151.176 33.832C151.28 33.832 151.372 33.86 151.452 33.916C151.54 33.972 151.584 34.06 151.584 34.18V43.132C151.584 43.252 151.54 43.34 151.452 43.396C151.372 43.452 151.28 43.48 151.176 43.48C151.064 43.48 150.964 43.452 150.876 43.396C150.796 43.34 150.756 43.252 150.756 43.132V38.056H149.28C149.176 38.056 149.1 38.02 149.052 37.948C149.004 37.868 148.98 37.772 148.98 37.66C148.98 37.556 149.004 37.468 149.052 37.396C149.1 37.324 149.176 37.288 149.28 37.288H150.756V34.18C150.756 34.06 150.796 33.972 150.876 33.916C150.964 33.86 151.064 33.832 151.176 33.832ZM153.288 33.712C153.4 33.712 153.496 33.74 153.576 33.796C153.664 33.852 153.708 33.94 153.708 34.06V43.636C153.708 43.756 153.664 43.844 153.576 43.9C153.496 43.956 153.4 43.984 153.288 43.984C153.184 43.984 153.088 43.956 153 43.9C152.92 43.844 152.88 43.756 152.88 43.636V34.06C152.88 33.94 152.92 33.852 153 33.796C153.088 33.74 153.184 33.712 153.288 33.712Z" fill="#E3B334"/>
<path d="M246.28 35.416C246.096 35.416 245.96 35.352 245.872 35.224C245.784 35.096 245.74 34.944 245.74 34.768C245.74 34.592 245.784 34.44 245.872 34.312C245.96 34.184 246.096 34.12 246.28 34.12H252.952C253.136 34.12 253.272 34.184 253.36 34.312C253.448 34.44 253.492 34.592 253.492 34.768C253.492 34.944 253.448 35.096 253.36 35.224C253.272 35.352 253.136 35.416 252.952 35.416H250.396V35.5C250.396 35.788 250.468 36.028 250.612 36.22C250.756 36.404 251.016 36.592 251.392 36.784C251.776 36.976 252.128 37.148 252.448 37.3C252.776 37.444 253.12 37.596 253.48 37.756C253.64 37.828 253.736 37.952 253.768 38.128C253.808 38.296 253.788 38.464 253.708 38.632C253.628 38.792 253.508 38.912 253.348 38.992C253.188 39.072 253.024 39.076 252.856 39.004C252.448 38.82 252.08 38.656 251.752 38.512C251.432 38.36 251.088 38.192 250.72 38.008C250.344 37.824 250.076 37.66 249.916 37.516C249.764 37.372 249.668 37.232 249.628 37.096H249.616C249.576 37.256 249.476 37.408 249.316 37.552C249.156 37.696 248.888 37.86 248.512 38.044C248.144 38.228 247.796 38.396 247.468 38.548C247.148 38.692 246.784 38.856 246.376 39.04C246.208 39.112 246.044 39.108 245.884 39.028C245.724 38.948 245.604 38.824 245.524 38.656C245.436 38.48 245.408 38.304 245.44 38.128C245.48 37.952 245.584 37.828 245.752 37.756C246.112 37.596 246.452 37.444 246.772 37.3C247.1 37.148 247.456 36.976 247.84 36.784C248.216 36.592 248.476 36.404 248.62 36.22C248.764 36.028 248.836 35.788 248.836 35.5V35.416H246.28ZM245.08 41.152C244.896 41.152 244.76 41.088 244.672 40.96C244.584 40.832 244.54 40.68 244.54 40.504C244.54 40.328 244.584 40.176 244.672 40.048C244.76 39.92 244.896 39.856 245.08 39.856H254.152C254.336 39.856 254.472 39.92 254.56 40.048C254.648 40.176 254.692 40.328 254.692 40.504C254.692 40.68 254.648 40.832 254.56 40.96C254.472 41.088 254.336 41.152 254.152 41.152H250.384V44.284C250.384 44.508 250.304 44.672 250.144 44.776C249.992 44.88 249.816 44.932 249.616 44.932C249.416 44.932 249.236 44.88 249.076 44.776C248.924 44.672 248.848 44.508 248.848 44.284V41.152H245.08ZM257.802 38.212C257.418 38.212 257.15 38.14 256.998 37.996C256.854 37.852 256.782 37.592 256.782 37.216V35.02C256.782 34.644 256.854 34.384 256.998 34.24C257.15 34.096 257.418 34.024 257.802 34.024H263.274C263.658 34.024 263.922 34.096 264.066 34.24C264.218 34.384 264.294 34.644 264.294 35.02V37.216C264.294 37.592 264.218 37.852 264.066 37.996C263.922 38.14 263.658 38.212 263.274 38.212H257.802ZM262.494 36.94C262.678 36.94 262.77 36.848 262.77 36.664V35.572C262.77 35.388 262.678 35.296 262.494 35.296H258.582C258.398 35.296 258.306 35.388 258.306 35.572V36.664C258.306 36.848 258.398 36.94 258.582 36.94H262.494ZM256.002 40.396C255.818 40.396 255.682 40.332 255.594 40.204C255.506 40.076 255.462 39.928 255.462 39.76C255.462 39.584 255.506 39.432 255.594 39.304C255.682 39.176 255.818 39.112 256.002 39.112H265.074C265.258 39.112 265.394 39.176 265.482 39.304C265.57 39.432 265.614 39.584 265.614 39.76C265.614 39.928 265.57 40.076 265.482 40.204C265.394 40.332 265.258 40.396 265.074 40.396H261.462V41.812C261.462 42.02 261.386 42.172 261.234 42.268C261.09 42.356 260.91 42.4 260.694 42.4C260.486 42.4 260.306 42.356 260.154 42.268C260.01 42.172 259.938 42.02 259.938 41.812V40.396H256.002ZM263.97 43.396C264.154 43.396 264.29 43.46 264.378 43.588C264.466 43.716 264.51 43.868 264.51 44.044C264.51 44.22 264.466 44.372 264.378 44.5C264.29 44.628 264.154 44.692 263.97 44.692H257.778C257.394 44.692 257.126 44.62 256.974 44.476C256.83 44.332 256.758 44.072 256.758 43.696V41.836C256.758 41.612 256.834 41.448 256.986 41.344C257.146 41.24 257.33 41.188 257.538 41.188C257.738 41.188 257.914 41.24 258.066 41.344C258.226 41.448 258.306 41.612 258.306 41.836V43.12C258.306 43.304 258.398 43.396 258.582 43.396H263.97ZM269.852 38.404C268.9 38.404 268.184 38.2 267.704 37.792C267.224 37.376 266.984 36.836 266.984 36.172C266.984 35.508 267.224 34.972 267.704 34.564C268.184 34.148 268.9 33.94 269.852 33.94C270.804 33.94 271.52 34.148 272 34.564C272.48 34.972 272.72 35.508 272.72 36.172C272.72 36.836 272.48 37.376 272 37.792C271.52 38.2 270.804 38.404 269.852 38.404ZM269.852 37.156C270.348 37.156 270.708 37.068 270.932 36.892C271.164 36.716 271.28 36.476 271.28 36.172C271.28 35.868 271.164 35.628 270.932 35.452C270.708 35.276 270.348 35.188 269.852 35.188C269.356 35.188 268.992 35.276 268.76 35.452C268.536 35.628 268.424 35.868 268.424 36.172C268.424 36.476 268.536 36.716 268.76 36.892C268.992 37.068 269.356 37.156 269.852 37.156ZM275.264 36.916H276.236C276.428 36.916 276.568 36.98 276.656 37.108C276.744 37.236 276.788 37.392 276.788 37.576C276.788 37.76 276.744 37.92 276.656 38.056C276.568 38.184 276.428 38.248 276.236 38.248H275.264V41.392C275.264 41.608 275.188 41.768 275.036 41.872C274.884 41.976 274.708 42.028 274.508 42.028C274.308 42.028 274.132 41.976 273.98 41.872C273.828 41.768 273.752 41.608 273.752 41.392V34.24C273.752 34.024 273.828 33.864 273.98 33.76C274.132 33.656 274.308 33.604 274.508 33.604C274.708 33.604 274.884 33.656 275.036 33.76C275.188 33.864 275.264 34.024 275.264 34.24V36.916ZM272.816 40.48C272.432 40.512 272.008 40.54 271.544 40.564C271.08 40.588 270.592 40.612 270.08 40.636C269.576 40.652 269.052 40.664 268.508 40.672C267.972 40.68 267.432 40.684 266.888 40.684C266.704 40.684 266.568 40.62 266.48 40.492C266.392 40.364 266.348 40.212 266.348 40.036C266.348 39.868 266.392 39.72 266.48 39.592C266.568 39.464 266.704 39.4 266.888 39.4C267.256 39.4 267.624 39.4 267.992 39.4C268.36 39.4 268.732 39.396 269.108 39.388V37.516H270.62V39.352C270.972 39.336 271.32 39.32 271.664 39.304C272.016 39.28 272.364 39.252 272.708 39.22C272.892 39.204 273.028 39.252 273.116 39.364C273.212 39.476 273.268 39.62 273.284 39.796C273.3 39.956 273.272 40.108 273.2 40.252C273.128 40.388 273 40.464 272.816 40.48ZM274.988 43.372C275.172 43.372 275.308 43.436 275.396 43.564C275.484 43.692 275.528 43.844 275.528 44.02C275.528 44.196 275.484 44.348 275.396 44.476C275.308 44.604 275.172 44.668 274.988 44.668H268.928C268.544 44.668 268.276 44.596 268.124 44.452C267.98 44.308 267.908 44.048 267.908 43.672V41.836C267.908 41.612 267.984 41.448 268.136 41.344C268.296 41.24 268.48 41.188 268.688 41.188C268.888 41.188 269.064 41.24 269.216 41.344C269.376 41.448 269.456 41.612 269.456 41.836V43.096C269.456 43.28 269.548 43.372 269.732 43.372H274.988ZM285.082 34.228C285.466 34.228 285.73 34.3 285.874 34.444C286.026 34.588 286.102 34.848 286.102 35.224V36.808C286.102 37.184 286.026 37.444 285.874 37.588C285.73 37.732 285.466 37.804 285.082 37.804H280.426C280.242 37.804 280.15 37.896 280.15 38.08V38.572C280.15 38.756 280.242 38.848 280.426 38.848H285.802C285.986 38.848 286.122 38.912 286.21 39.04C286.298 39.168 286.342 39.32 286.342 39.496C286.342 39.672 286.298 39.824 286.21 39.952C286.122 40.08 285.986 40.144 285.802 40.144H279.658C279.274 40.144 279.006 40.072 278.854 39.928C278.71 39.784 278.638 39.524 278.638 39.148V37.552C278.638 37.176 278.71 36.916 278.854 36.772C279.006 36.628 279.274 36.556 279.658 36.556H284.314C284.498 36.556 284.59 36.464 284.59 36.28V35.8C284.59 35.616 284.498 35.524 284.314 35.524H279.154C278.97 35.524 278.834 35.46 278.746 35.332C278.658 35.204 278.614 35.052 278.614 34.876C278.614 34.7 278.658 34.548 278.746 34.42C278.834 34.292 278.97 34.228 279.154 34.228H285.082ZM277.846 43.108C277.662 43.108 277.526 43.044 277.438 42.916C277.35 42.788 277.306 42.636 277.306 42.46C277.306 42.292 277.35 42.144 277.438 42.016C277.526 41.888 277.662 41.824 277.846 41.824H280.162V39.532H281.614V41.824H283.198V39.532H284.65V41.824H286.918C287.102 41.824 287.238 41.888 287.326 42.016C287.414 42.144 287.458 42.292 287.458 42.46C287.458 42.636 287.414 42.788 287.326 42.916C287.238 43.044 287.102 43.108 286.918 43.108H277.846Z" fill="#E3B334"/>
<line y1="-0.5" x2="257" y2="-0.5" transform="matrix(-1 8.74228e-08 8.74228e-08 1 273 17)" stroke="#F5F8F1"/>
<ellipse cx="7.94118" cy="7.5" rx="7.94118" ry="7.5" transform="matrix(-1 0 0 1 152 9)" fill="#F5F8F1"/>
<circle cx="7.5" cy="7.5" r="7.5" transform="matrix(-1 0 0 1 29 9)" fill="#F5F8F1"/>
<path d="M270.729 6.04166C271.21 6.04166 271.671 6.23262 272.011 6.57253C272.351 6.91244 272.542 7.37345 272.542 7.85416C272.542 8.33486 272.351 8.79588 272.011 9.13579C271.671 9.4757 271.21 9.66666 270.729 9.66666C270.249 9.66666 269.787 9.4757 269.448 9.13579C269.108 8.79588 268.917 8.33486 268.917 7.85416C268.917 7.37345 269.108 6.91244 269.448 6.57253C269.787 6.23262 270.249 6.04166 270.729 6.04166ZM268.917 2.41666C267.314 2.41666 265.778 3.05319 264.645 4.18622C263.512 5.31925 262.875 6.85597 262.875 8.45832C262.875 10.5125 263.902 12.325 265.461 13.4125C263.552 13.5937 261.401 14.0287 259.25 15.1042C255.625 16.9167 254.417 14.5 254.417 14.5C254.417 14.5 255.625 25.375 262.875 25.375H270.125C270.125 25.375 276.167 25.375 276.167 19.3333C276.167 15.7083 272.542 14.5 273.75 12.0833C278.583 12.0833 278.583 7.85416 278.583 7.85416C277.375 8.45832 275.877 8.45832 274.958 8.03541C274.846 6.50952 274.16 5.08263 273.04 4.04065C271.92 2.99867 270.447 2.41859 268.917 2.41666Z" fill="#F5F8F1"/>
</svg>
